<?xml version="1.0" encoding="UTF-8"?>
<svg width="210" height="210" version="1.1" viewBox="0 0 55.562498 55.562501" xmlns="http://www.w3.org/2000/svg">
 <g transform="translate(0 -241.44)">
  <path d="m13.148 247c-14.123 0.24566-14.887 33.786 14.634 44.389 37.787-13.572 25.954-64.724 0-35.53-5.6774-6.3862-10.679-8.9277-14.634-8.8589z" fill="#f55" style="paint-order:normal"/>
  <path d="m36.635 268.68c-5.7514-0.0161-11.279 1.8876-17.617 2.1038-4.6813 0.15959-9.7792-0.60018-13.857-1.3131 2.8429 8.5669 9.9321 17.361 22.62 21.918 11.644-4.1822 18.575-11.933 21.834-19.801-3.3706-1.3493-7.6726-2.6704-11.828-2.8773-0.38572-0.0192-0.76999-0.0289-1.1534-0.03z" fill="#f00" fill-rule="evenodd"/>
  <path d="m13.132 246.07c-3.897 0.0678-6.9378 2.5045-8.6426 6.0762-1.7048 3.5716-2.1977 8.2937-1.3027 13.322 1.7899 10.057 9.2259 21.382 24.281 26.789l0.31445 0.11132 0.3125-0.11132c19.271-6.9214 26.053-23.482 24.508-34.799-0.77248-5.6586-3.7101-10.175-8.3613-11.182-4.4822-0.97004-10.142 1.4683-16.453 8.2832-5.4961-5.9424-10.469-8.5631-14.656-8.4902zm0.0312 1.8516c3.5442-0.0617 8.3468 2.2733 13.926 8.5488l0.69335 0.7793 0.69141-0.7793c6.376-7.172 11.689-9.1806 15.375-8.3828 3.6861 0.79775 6.2113 4.4445 6.918 9.6211 1.4049 10.291-4.7341 25.947-22.992 32.666-14.234-5.2411-21.099-15.88-22.764-25.23-0.83871-4.7126-0.3377-9.0836 1.1504-12.201 1.4881-3.1176 3.8374-4.9664 7.002-5.0215z" color="#000000" color-rendering="auto" dominant-baseline="auto" image-rendering="auto" shape-rendering="auto" solid-color="#000000" style="font-feature-settings:normal;font-variant-alternates:normal;font-variant-caps:normal;font-variant-ligatures:normal;font-variant-numeric:normal;font-variant-position:normal;isolation:auto;mix-blend-mode:normal;paint-order:normal;shape-padding:0;text-decoration-color:#000000;text-decoration-line:none;text-decoration-style:solid;text-indent:0;text-orientation:mixed;text-transform:none;white-space:normal"/>
  <path d="m34.917 264.29v9.8335h-9.8335v6.4534h9.8335v9.8335h6.4533v-9.8335h9.8335v-6.4534h-9.8335v-9.8335z" fill="#fff" style="paint-order:normal"/>
  <path d="m33.991 263.37v9.834h-9.834v8.3047h9.834v9.834h8.3047v-9.834h9.834v-8.3047h-9.834v-9.834zm1.8516 1.8516h4.6016v9.834h9.834v4.6016h-9.834v9.834h-4.6016v-9.834h-9.834v-4.6016h9.834z" color="#000000" color-rendering="auto" dominant-baseline="auto" image-rendering="auto" shape-rendering="auto" solid-color="#000000" style="font-feature-settings:normal;font-variant-alternates:normal;font-variant-caps:normal;font-variant-ligatures:normal;font-variant-numeric:normal;font-variant-position:normal;isolation:auto;mix-blend-mode:normal;paint-order:normal;shape-padding:0;text-decoration-color:#000000;text-decoration-line:none;text-decoration-style:solid;text-indent:0;text-orientation:mixed;text-transform:none;white-space:normal"/>
 </g>
</svg>
